<svg xmlns="http://www.w3.org/2000/svg" width="265" height="42">
    <path d="M67.1 42c-1.3-.4-2.6-.4-3.9-.4-2.2 0-4.4 0-6.4-1.6-.8-.9-.8-2.1-.2-3.4v-.1h.1c1.5-1.2 3.6-1.6 5.6-1.1 1.3-.2 1.8.9 2.3 1.7.4.7.8 1.4 1.5 1.5h.1c2.3 1 3.8-.6 5.4-2.4.7-.8 1.4-1.6 2.2-2.1 1.8-3.9-.4-5.9-3-8.2-1.6-1.4-3.2-2.9-3.9-4.9-1.2-.6-1.8-1.7-2.5-2.8-.6-1.1-1.3-2.1-2.3-2.5H62v-.1c-.5-1.5-1.5-2.6-2.6-3h-.5c-1.2 0-2.5.1-3.4-1.1v-.1c-.2-.8.1-1.6.9-2.2l.1-.2h.1c3.6.4 7.3.2 10.9-.1 2.6-.2 5.2-.4 7.8-.4h.2l.8 1.3c.3 1.2-.4 2.1-1.3 2.5-1 .6-2.2.3-3.2.1-1.6-.4-2.4-.5-2.9 1 1.1 3.1 3.2 5.7 5.1 8.2.7.9 1.3 1.7 2 2.6.4.3.7.7 1 1 1 1.2 1.7 1.8 2.6 1.3.5-1.5 1.5-2.4 2.5-3.3 1-.9 1.9-1.6 2.3-3v-.1c.3-.4.7-.7 1-1.1 1.7-1.7 3.9-3.9 3.3-6.6-.9-.6-1.9-.4-3.1-.3-1.4.2-3 .4-4.1-1.2v.1-.1c0-1.1.7-1.8 1.4-2.1h.1c5.4.2 11.5.1 16.6-.2h.1c.5.1.9.5 1 1.1.2.7.1 1.4-.3 1.8-.7 1-1.8 1.1-2.8 1.1-.5 0-1 0-1.4.1-1.7 2.1-3.4 4.3-5 6.4-3.5 4.6-7.2 9.4-11.5 13.3 0 1.8-1.1 2.6-2.1 3.3-.8.6-1.6 1.1-1.8 2.2v.2c-1.9 2.1-4.3 2.7-6.6 3.2l-2.1.5v.2zm195-8.4c-1 0-2-.2-2.9-.4-1.4-.3-2.8-.5-4.3-.2l-10.9.4h-.1c-.9-.4-1-1.7-.7-2.6v-.1c1.1-1 2.4-.9 3.6-.8 1.2.1 2.3.1 3.1-.7 1.4-3.8 1.2-9 .6-12.4-2-3.7-5.6-3.9-9.2-4.2-.6 0-1.3-.1-2-.1-1 1.5-2.6 1.6-4 1.6-1.6 0-3 .1-3.8 2.1v.1h-.1c-3.1 2.3-3.1 6.5-3.1 10.6v.7c.8 2.3 2.7 2.2 4.8 2.1h2.1l.1.2.1.3c.4.6.9 1.4.4 2.2v.1l-1.1 1.1h-.2c-4-.8-7.9-.6-12-.4-2.1.1-4.2.2-6.4.2-.4 0-.6-.2-.8-.4-.4-.6-.2-1.5-.1-2.1l.1-.4h.3c.6-.2 1.3-.3 2.1-.4 1.6-.1 3.1-.3 3.9-1.9l-.2-13.2c-.2-2.1-1.4-2.2-2.9-2.2-1.3 0-3-.1-3-2.6V10l.9-.9 10 .3.1.1c.5.5.6 1.3.6 2 .1.7.1 1.3.6 1.7 1.5-.2 2.7-.9 4-1.7 1.7-1 3.4-2 5.6-1.8 2.5-1.3 5.1-1 7.6-.7 1.5.2 3 .4 4.5.2h.1l2.1 1.4c2.9.9 5.3 4.4 6.3 7.3v.1l.2 10.3c.6 1.3 2.1 1.3 3.5 1.3 1.2 0 2.2 0 2.9.8.4.5.5 1.3.2 2.6v.2l-.2.1c-.7.2-1.5.3-2.4.3zm-61.2 0h-.5c-.9-.5-1.4-.7-2.3-.9-1-.2-1.8-1.1-2.6-1.9-.7-.7-1.3-1.4-1.9-1.4-.4 0-.9.3-1.4.9-1.3.9-2.9 1.2-4.4 1.4-1.4.2-2.8.4-3.9 1.2l-.1.1h-.1c-2-.3-4-.1-6 0-4.3.4-8.8.7-11.7-3.9v-.2c0-1.7.5-3.1 1.4-4.3 1.2-1.6 2.8-2 4.3-2.3 1.1-.3 2.3-.5 3.4-1.3h.1c1.7-.3 2.9-.7 4-1.1l1.8-.6c.9-.1 1.7-.2 2.5-.2 1.6-.1 3.1-.2 4.3-.8h1.8c1.7 0 3.1 0 4.1-1.3.3-2.9-1.7-3.5-4-4.3-4.2-.5-10.3-.9-11.3 0-.3 2.7-1.3 4.4-2.9 5h-.1c-.5 0-1.1 0-1.6.1-2 .2-4.5.4-5.7-2.4v-.1c0-1.7 1.1-2.4 2-3.1.4-.3.9-.6 1.2-1l.1-.1h.2c1.9.1 3.5-.5 5.2-1.2 2-.8 4-1.6 6.4-1.1 5.1-.3 10 .7 13.7 1.5h.3l3.5 4.7c1.1 2.2.8 4.7.5 7.2-.4 2.8-.7 5.5 1.3 7.4h1.6c1.7.1 3.3.2 4-1.8.1-.9.4-1.5 1-1.7h.2c.3 0 .5 0 .9.1.9 0 2.1.1 2.7 1.5v.2c-.3 3.6-3 4.3-5.4 4.8-.7.2-1.4.3-2 .5-2 .2-3.3.4-4.6.4zm-70.4-.1c-1.4 0-2.8-.1-4.2-.4h-.1c-.9-.4-.8-1.5-.4-2.4v-.1h.1c.4-.2.9-.3 1.3-.4 1.1-.3 2.1-.5 2.6-1.8 0-1.1 0-2.1.1-3.3.2-3.5.4-7.2-1-10.1-1.7-3.1-4.3-2.3-7.1-1.4-.8.3-1.6.5-2.3.7-.4.4-.7.9-1 1.3-.5.7-1 1.4-1.6 2.1.2 1.4 0 2.9-.2 4.4-.4 3.1-.7 6 1.7 7.4 1.3.1 2.3.7 2.9 1.7.3.8-.1 1.5-1 1.9h-.2c-1.5 0-3-.1-4.6-.1-3.5-.2-7.3-.3-10.7.1h.2-.1c-.3-.1-.6-.4-.8-.8-.2-.5-.2-1.2 0-1.7v-.1c.9-.9 1.9-.9 2.9-.9 1.3 0 2.2 0 2.7-1.8-.5-2-.3-4.3-.1-6.4.4-3.4.7-6.6-1.8-8.6-.5-.4-1.2-.5-1.8-.6-.9-.2-1.7-.4-2.4-1v-.1c-.2-.5-.1-1.2.2-1.6.2-.3.5-.5.9-.5.4-.1 1.3-.2 3.6-.3 6-.3 6.5.6 6.7.9.4.6.4 1.3.5 1.7.1.6.1.9.7 1.1 1.7-.9 3.3-1.7 5.1-2.5 3.4-.9 8.2-1.9 11.8.5h.1v.1c.6 1.3 1.3 1.9 2 2.1 1.1.3 2.4-.7 3.7-1.7 1.2-.9 2.4-1.9 3.7-2 5.3-1.1 9.6.9 12.7 2.7h.1v.1c1.7 3 2.4 5.7 2.2 8.6 0 .6 0 1.3-.1 1.9-.1 2.1-.3 4.6.6 6 .4.5 1 .7 1.7.9 1.2.4 2.6.8 2.3 3.2v.2c-.9 1-2.3.8-3.4.6-.2 0-.3 0-.5-.1-1.7-.2-3.4-.2-5.1-.1-2.1 0-4.3 0-6.3-.4h-.1l-.1.2c-.4-.4-.8-1.2-.2-2.1l.1-.1h.1c1.9-.5 3.3-1.4 4.1-2.8-.3-1.6-.1-3.4 0-5.2.3-3.9.5-7.6-3-8.4h-.2c-2.1-2-5-1.1-6.8.2-.4.5-.8.9-1.2 1.3-1.3 1.3-2.4 2.5-2.1 4.6 0 .9 0 1.8-.1 2.9-.2 2-.4 4 .4 5.5.3.9 1.1 1.1 1.9 1.3 1 .3 2.3.6 1.8 2.7v.1l-1 .9h-.1c-2-.1-3.9 0-5.8.1-1.4-.3-2.7-.2-4-.2zm-129.4 0C.3 33-.1 32.2 0 31.1V31l.1-.1c1.3-1.4 2.9-1 4.3-.7 1.4.3 2.6.6 3.7-.5l1.3-2.1c-.1-3.3 0-6.5 0-9.5.1-4.4.2-8.5-.2-13-1.1-2-2.6-1.8-4.3-1.6-1.2.1-2.9.4-4-1.2v-.1C.7 1.8.7 1.4 1 1c.3-.4.9-.8 1.3-.8 5.8.9 11.9.5 17.7.2 5.5-.3 11.1-.7 16.5 0l4.2 1c2.8.2 4.3 1.6 6.2 4.1v.1c0 .2.1.5.1.7.4 2.2 1.1 5.5-1 7.3l-.5.4c-2.1 1.3-4.4 2.6-7.1 2.7-.2.1-.2.4-.2.5 0 .3 0 .7.2.8l.4.2c1.3.8 3 1.8 3.4 3.7.2.9.3 1.8.3 2.8.1 2.1.1 4.2 2 4.9 1.5.5 2.8-.6 4.2-1.7 1.2-1 2.4-2 3.8-1.8.9.1 1.6.6 2.4 1.7l.1.1v.1c-.3 2.7-2.2 3.4-3.9 4-.9.3-1.7.6-2.3 1.1l-.1.1h-.1c-.7 0-1.4 0-2.2.1-3.5.3-7.9.6-10-3.9v-.2c.2-3.4-1.3-6.5-3.9-8.3-.5-.2-1.1-.5-1.7-.7-1.8-.8-3.4-1.6-5.5-1.3-1 .4-2.4.2-3.6 0-2.3-.4-4.3-.6-5.1 2.1 0 .6-.1 1.3-.2 2-.3 2.4-.5 4.9 1 6.4 1.6.9 3.4.8 5.2.7H25.1c.4.2.7.7.8 1.2.1.5 0 1.1-.4 1.4v.1h-.1c-2.5.4-5.2.7-7.9.3-5.1-.2-11.7 0-16.4.4zm175-4.3c2.7.2 5.4.2 8.1 0 1.3-1.2 2.6-1.2 4-1.3 1.3 0 2.5-.1 3.6-1l.2-.2c1-.9 2-2 1.7-3.5-1.3-3-5.3-1.3-7.5-.4h-.2c-4 .2-7.8.4-10.9 3.2-.4 1.2.2 2.5 1 3.2zM19.2 15.4c1.4 0 2.9.1 4.4.2 5.3.3 10.7.7 14.7-3.3.7-.9.7-2.3.7-3.7v-.4c-.4-2-2-3.4-4-3.9l-5.7-.1c-.9 0-1.7-.2-2.6-.3-3.5-.5-7.1-1.1-9.4 1.9 0 1.1-.2 2.2-.3 3.3-.3 2.1-.6 4.4.1 6.4.7-.1 1.4-.1 2.1-.1z" fill="#d80a00"/>
</svg>
